<mxfile host="app.diagrams.net" agent="Mozilla/5.0 (Windows NT 10.0; Win64; x64; rv:143.0) Gecko/20100101 Firefox/143.0" version="28.2.5">
  <diagram name="Page-1" id="H3V3IwkfpKFNce3Ktkn-">
    <mxGraphModel grid="1" page="1" gridSize="10" guides="1" tooltips="1" connect="1" arrows="1" fold="1" pageScale="1" pageWidth="850" pageHeight="1100" math="0" shadow="0">
      <root>
        <mxCell id="0" />
        <mxCell id="1" parent="0" />
        <mxCell id="fZ7U-bHGx_q4HvnVht5c-1" value="&lt;h1&gt;Assurance Case&lt;/h1&gt;" style="text;html=1;strokeColor=none;fillColor=none;spacing=5;spacingTop=-20;whiteSpace=wrap;overflow=hidden;rounded=0;" vertex="1" parent="1">
          <mxGeometry x="20" y="20" width="190" height="70" as="geometry" />
        </mxCell>
        <mxCell id="fZ7U-bHGx_q4HvnVht5c-2" style="edgeStyle=orthogonalEdgeStyle;rounded=0;orthogonalLoop=1;jettySize=auto;html=1;exitX=1;exitY=0.5;exitDx=0;exitDy=0;entryX=0;entryY=0.5;entryDx=0;entryDy=0;endArrow=block;endFill=1;" edge="1" parent="1" source="fZ7U-bHGx_q4HvnVht5c-42" target="fZ7U-bHGx_q4HvnVht5c-6">
          <mxGeometry relative="1" as="geometry">
            <mxPoint x="470" y="40" as="sourcePoint" />
          </mxGeometry>
        </mxCell>
        <mxCell id="fZ7U-bHGx_q4HvnVht5c-3" value="" style="edgeStyle=orthogonalEdgeStyle;rounded=0;orthogonalLoop=1;jettySize=auto;html=1;endArrow=block;endFill=1;curved=1;exitX=0.5;exitY=1;exitDx=0;exitDy=0;" edge="1" parent="1" source="fZ7U-bHGx_q4HvnVht5c-42" target="fZ7U-bHGx_q4HvnVht5c-8">
          <mxGeometry relative="1" as="geometry">
            <mxPoint x="407.5" y="70" as="sourcePoint" />
          </mxGeometry>
        </mxCell>
        <mxCell id="fZ7U-bHGx_q4HvnVht5c-6" value="&lt;b&gt;Context: CT1&lt;/b&gt;&lt;br&gt;The browser is operating on a user&#39;s device with up-to-date operating system security patches" style="rounded=1;whiteSpace=wrap;html=1;arcSize=30;" vertex="1" parent="1">
          <mxGeometry x="660" y="5" width="165" height="70" as="geometry" />
        </mxCell>
        <mxCell id="fZ7U-bHGx_q4HvnVht5c-7" style="edgeStyle=orthogonalEdgeStyle;curved=1;rounded=0;orthogonalLoop=1;jettySize=auto;html=1;endArrow=block;endFill=1;" edge="1" parent="1" source="fZ7U-bHGx_q4HvnVht5c-8" target="fZ7U-bHGx_q4HvnVht5c-11">
          <mxGeometry relative="1" as="geometry" />
        </mxCell>
        <mxCell id="fZ7U-bHGx_q4HvnVht5c-8" value="&lt;div&gt;&lt;b&gt;Rebuttal R1:&lt;/b&gt;&amp;nbsp;Unless the download happens without a user&#39;s input&lt;/div&gt;" style="shape=note;whiteSpace=wrap;html=1;backgroundOutline=1;darkOpacity=0.05;size=17;fillColor=#FFF2CC;" vertex="1" parent="1">
          <mxGeometry x="164.38" y="150" width="171.25" height="60" as="geometry" />
        </mxCell>
        <mxCell id="fZ7U-bHGx_q4HvnVht5c-11" value="&lt;b&gt;Sub-Claim C2:&lt;/b&gt;&amp;nbsp;A download confirmation popup prevents a malicious file from being downloaded unknowingly" style="rounded=0;whiteSpace=wrap;html=1;" vertex="1" parent="1">
          <mxGeometry x="170" y="270" width="160" height="60" as="geometry" />
        </mxCell>
        <mxCell id="fZ7U-bHGx_q4HvnVht5c-13" value="&lt;b&gt;Rebuttal R2:&lt;/b&gt;&lt;div&gt;Unless the file download source is redirected&lt;/div&gt;" style="shape=note;whiteSpace=wrap;html=1;backgroundOutline=1;darkOpacity=0.05;size=17;fillColor=#FFF2CC;" vertex="1" parent="1">
          <mxGeometry x="420" y="150" width="165" height="60" as="geometry" />
        </mxCell>
        <mxCell id="fZ7U-bHGx_q4HvnVht5c-14" style="edgeStyle=orthogonalEdgeStyle;curved=1;rounded=0;orthogonalLoop=1;jettySize=auto;html=1;endArrow=block;endFill=1;" edge="1" parent="1" source="fZ7U-bHGx_q4HvnVht5c-15" target="fZ7U-bHGx_q4HvnVht5c-20">
          <mxGeometry relative="1" as="geometry" />
        </mxCell>
        <mxCell id="fZ7U-bHGx_q4HvnVht5c-15" value="&lt;div&gt;&lt;b&gt;Rebuttal R3:&lt;/b&gt;&amp;nbsp;Unless the&lt;/div&gt;&lt;div&gt;popup doesn&#39;t display the file&#39;s real name/extension&lt;/div&gt;" style="shape=note;whiteSpace=wrap;html=1;backgroundOutline=1;darkOpacity=0.05;size=17;fillColor=#FFF2CC;" vertex="1" parent="1">
          <mxGeometry x="164.38" y="390" width="172.5" height="60" as="geometry" />
        </mxCell>
        <mxCell id="fZ7U-bHGx_q4HvnVht5c-19" style="edgeStyle=orthogonalEdgeStyle;curved=1;rounded=0;orthogonalLoop=1;jettySize=auto;html=1;entryX=0.5;entryY=0;entryDx=0;entryDy=0;endArrow=block;endFill=1;exitX=0.5;exitY=1;exitDx=0;exitDy=0;" edge="1" parent="1" source="fZ7U-bHGx_q4HvnVht5c-20" target="fZ7U-bHGx_q4HvnVht5c-28">
          <mxGeometry relative="1" as="geometry">
            <mxPoint x="237" y="780" as="sourcePoint" />
          </mxGeometry>
        </mxCell>
        <mxCell id="fZ7U-bHGx_q4HvnVht5c-20" value="&lt;b&gt;Sub-Claim C4:&lt;/b&gt;&amp;nbsp;The browser prints the filename in its entirety" style="rounded=0;whiteSpace=wrap;html=1;" vertex="1" parent="1">
          <mxGeometry x="150" y="510" width="200" height="60" as="geometry" />
        </mxCell>
        <mxCell id="fZ7U-bHGx_q4HvnVht5c-21" style="edgeStyle=orthogonalEdgeStyle;curved=1;rounded=0;orthogonalLoop=1;jettySize=auto;html=1;entryX=0.5;entryY=0;entryDx=0;entryDy=0;endArrow=block;endFill=1;" edge="1" parent="1" target="fZ7U-bHGx_q4HvnVht5c-25">
          <mxGeometry relative="1" as="geometry">
            <mxPoint x="250" y="720" as="sourcePoint" />
          </mxGeometry>
        </mxCell>
        <mxCell id="fZ7U-bHGx_q4HvnVht5c-25" value="" style="ellipse;whiteSpace=wrap;html=1;aspect=fixed;fillColor=#CCCCCC;" vertex="1" parent="1">
          <mxGeometry x="235" y="750" width="30" height="30" as="geometry" />
        </mxCell>
        <mxCell id="fZ7U-bHGx_q4HvnVht5c-28" value="&lt;div&gt;&lt;b&gt;Evidence E1: &lt;/b&gt;Filename printing dialogue box&lt;/div&gt;&lt;div&gt;&lt;a rel=&quot;noopener noreferrer&quot; target=&quot;_blank&quot; href=&quot;https://github.com/LadybirdBrowser/ladybird/blob/0e4450f4b3d674803b4152fffa2e548079737604/UI/Qt/Application.cpp#L147-L171&quot;&gt;UI/Qt/Application.cpp&lt;/a&gt;&amp;nbsp;&lt;/div&gt;" style="ellipse;whiteSpace=wrap;html=1;aspect=fixed;fillColor=#ffffff;rounded=0;" vertex="1" parent="1">
          <mxGeometry x="195.01" y="610" width="110" height="110" as="geometry" />
        </mxCell>
        <mxCell id="fZ7U-bHGx_q4HvnVht5c-42" value="&lt;b&gt;Top-Claim C1:&lt;br&gt;&lt;/b&gt;Ladybird browser&#39;s file download mechanism reduces the risk of malware execution via deceptive downloads&lt;b&gt;&amp;nbsp;&lt;/b&gt;" style="rounded=0;whiteSpace=wrap;html=1;" vertex="1" parent="1">
          <mxGeometry x="255" y="10" width="240" height="60" as="geometry" />
        </mxCell>
        <mxCell id="bk2-0UrnXQY0JZ6oVw0t-1" style="edgeStyle=orthogonalEdgeStyle;rounded=0;orthogonalLoop=1;jettySize=auto;html=1;exitX=1;exitY=0.5;exitDx=0;exitDy=0;entryX=0;entryY=0.5;entryDx=0;entryDy=0;endArrow=block;endFill=1;" edge="1" parent="1" source="fZ7U-bHGx_q4HvnVht5c-42" target="bk2-0UrnXQY0JZ6oVw0t-2">
          <mxGeometry relative="1" as="geometry">
            <mxPoint x="527.5" y="130" as="sourcePoint" />
          </mxGeometry>
        </mxCell>
        <mxCell id="bk2-0UrnXQY0JZ6oVw0t-2" value="&lt;b&gt;Context: CT2&lt;/b&gt;&lt;br&gt;File download operations involve untrusted external content" style="rounded=1;whiteSpace=wrap;html=1;arcSize=30;" vertex="1" parent="1">
          <mxGeometry x="660" y="90" width="165" height="60" as="geometry" />
        </mxCell>
        <mxCell id="bk2-0UrnXQY0JZ6oVw0t-5" style="edgeStyle=orthogonalEdgeStyle;rounded=0;orthogonalLoop=1;jettySize=auto;html=1;exitX=0.5;exitY=1;exitDx=0;exitDy=0;entryX=0.5;entryY=0;entryDx=0;entryDy=0;entryPerimeter=0;curved=1;" edge="1" parent="1" source="fZ7U-bHGx_q4HvnVht5c-11" target="fZ7U-bHGx_q4HvnVht5c-15">
          <mxGeometry relative="1" as="geometry">
            <mxPoint x="487.5" y="330" as="sourcePoint" />
          </mxGeometry>
        </mxCell>
        <mxCell id="bk2-0UrnXQY0JZ6oVw0t-6" style="edgeStyle=orthogonalEdgeStyle;rounded=0;orthogonalLoop=1;jettySize=auto;html=1;exitX=0.5;exitY=1;exitDx=0;exitDy=0;entryX=0.5;entryY=0;entryDx=0;entryDy=0;entryPerimeter=0;curved=1;" edge="1" parent="1" source="fZ7U-bHGx_q4HvnVht5c-42" target="fZ7U-bHGx_q4HvnVht5c-13">
          <mxGeometry relative="1" as="geometry" />
        </mxCell>
        <mxCell id="bk2-0UrnXQY0JZ6oVw0t-7" style="edgeStyle=orthogonalEdgeStyle;curved=1;rounded=0;orthogonalLoop=1;jettySize=auto;html=1;endArrow=block;endFill=1;" edge="1" parent="1" target="bk2-0UrnXQY0JZ6oVw0t-8">
          <mxGeometry relative="1" as="geometry">
            <mxPoint x="504.5" y="210" as="sourcePoint" />
          </mxGeometry>
        </mxCell>
        <mxCell id="bk2-0UrnXQY0JZ6oVw0t-8" value="&lt;b&gt;Sub-Claim C3:&lt;/b&gt;&amp;nbsp;The browser assesses the trustworthiness of the final download source" style="rounded=0;whiteSpace=wrap;html=1;" vertex="1" parent="1">
          <mxGeometry x="414.54" y="270" width="181.18" height="60" as="geometry" />
        </mxCell>
        <mxCell id="bk2-0UrnXQY0JZ6oVw0t-9" style="edgeStyle=orthogonalEdgeStyle;curved=1;rounded=0;orthogonalLoop=1;jettySize=auto;html=1;endArrow=block;endFill=1;" edge="1" parent="1" source="bk2-0UrnXQY0JZ6oVw0t-10" target="bk2-0UrnXQY0JZ6oVw0t-11">
          <mxGeometry relative="1" as="geometry" />
        </mxCell>
        <mxCell id="bk2-0UrnXQY0JZ6oVw0t-10" value="&lt;div&gt;&lt;b&gt;Rebuttal R4:&lt;/b&gt;&amp;nbsp;Unless the threat intelligence database used for the assessment is incomplete or outdated&lt;/div&gt;" style="shape=note;whiteSpace=wrap;html=1;backgroundOutline=1;darkOpacity=0.05;size=17;fillColor=#FFF2CC;" vertex="1" parent="1">
          <mxGeometry x="399.57" y="390" width="211.12" height="60" as="geometry" />
        </mxCell>
        <mxCell id="bk2-0UrnXQY0JZ6oVw0t-11" value="&lt;b&gt;Sub-Claim C5:&lt;/b&gt;&amp;nbsp;The threat intelligence service is frequently updated to ensure data currency against emerging threats" style="rounded=0;whiteSpace=wrap;html=1;" vertex="1" parent="1">
          <mxGeometry x="382.38" y="510" width="245.5" height="60" as="geometry" />
        </mxCell>
        <mxCell id="bk2-0UrnXQY0JZ6oVw0t-12" style="edgeStyle=orthogonalEdgeStyle;rounded=0;orthogonalLoop=1;jettySize=auto;html=1;exitX=0.5;exitY=1;exitDx=0;exitDy=0;entryX=0.5;entryY=0;entryDx=0;entryDy=0;entryPerimeter=0;curved=1;" edge="1" parent="1" source="bk2-0UrnXQY0JZ6oVw0t-8" target="bk2-0UrnXQY0JZ6oVw0t-10">
          <mxGeometry relative="1" as="geometry">
            <mxPoint x="742" y="330" as="sourcePoint" />
          </mxGeometry>
        </mxCell>
        <mxCell id="bk2-0UrnXQY0JZ6oVw0t-13" value="" style="rhombus;whiteSpace=wrap;html=1;strokeColor=default;fillColor=#000000;" vertex="1" parent="1">
          <mxGeometry x="487.63" y="570" width="35" height="20" as="geometry" />
        </mxCell>
      </root>
    </mxGraphModel>
  </diagram>
</mxfile>
